<svg width="24" height="24" viewBox="0 0 24 24" fill="none" xmlns="http://www.w3.org/2000/svg">
<path d="M9.36988 17.5101C6.27988 18.3701 11.2399 20.1501 15.1699 18.5101C14.7885 18.3618 14.4205 18.1811 14.0699 17.9701C12.7054 18.2807 11.296 18.3417 9.90988 18.1501C8.59988 18.0001 9.36988 17.5101 9.36988 17.5101ZM14.6999 15.8301C12.9399 16.2128 11.1286 16.3007 9.33988 16.0901C8.02988 15.9501 8.88988 15.3201 8.88988 15.3201C5.48988 16.4401 10.7799 17.7201 15.5299 16.3201C15.2211 16.2186 14.9379 16.0515 14.6999 15.8301ZM16.5199 6.1001C16.5199 6.1001 9.64988 7.8101 12.9299 11.5901C13.0578 11.7435 13.1532 11.9214 13.2101 12.1129C13.267 12.3044 13.2843 12.5055 13.2609 12.7039C13.2375 12.9023 13.174 13.0938 13.074 13.2668C12.9741 13.4398 12.84 13.5907 12.6799 13.7101C12.6799 13.7101 15.1399 12.4401 14.0099 10.8501C12.8799 9.2601 12.1499 8.6301 16.5199 6.1001Z" fill="#CFD2E2"/>
<path d="M18.1301 19.14C18.1301 19.14 18.6901 19.6 17.5001 19.96C15.2301 20.65 8.07011 20.86 6.08011 19.96C5.36011 19.65 6.70011 19.22 7.08011 19.13C7.30537 19.0719 7.53754 19.0449 7.77011 19.05C6.97011 18.49 2.62011 20.15 5.56011 20.63C13.6101 22 20.2001 20.07 18.1301 19.14ZM15.3701 14.26C15.6642 14.074 15.9717 13.9102 16.2901 13.77C16.2901 13.77 14.7801 14.04 13.2901 14.17C11.6878 14.3246 10.0752 14.3414 8.47011 14.22C6.09011 13.91 9.74011 13 9.74011 13C8.64171 12.9915 7.55755 13.2488 6.58011 13.75C4.52011 14.78 11.6701 15.23 15.3701 14.26ZM16.2801 16.7C16.2583 16.734 16.2313 16.7643 16.2001 16.79C21.2001 15.47 19.3801 12.14 16.9801 12.98C16.8477 13.0287 16.7328 13.1157 16.6501 13.23C16.6501 13.23 16.7901 13.18 17.0801 13.11C18.3001 12.86 20.0001 14.74 16.2801 16.7ZM12.0001 13C11.2601 11.33 8.74011 9.86 12.0001 7.29C16.0901 4.08 14.0001 2 14.0001 2C14.8401 5.31 11.0001 6.31 9.66011 8.37C8.73011 9.78 10.1301 11.29 12.0001 13Z" fill="#CFD2E2"/>
<path d="M16.41 21.3199C13.3888 21.8372 10.3057 21.8844 7.27002 21.4599C7.27002 21.4599 7.73002 21.8399 10.11 21.9899C13.72 22.2199 19.26 21.8699 19.4 20.1599C19.4 20.1599 19.14 20.7999 16.41 21.3199Z" fill="#CFD2E2"/>
</svg>
