<svg width="24" height="24" viewBox="0 0 24 24" fill="none" xmlns="http://www.w3.org/2000/svg">
<path d="M13.7401 4.23001C12.9001 3.23001 12.1701 2.23001 12.0301 2.01001H12.0001C11.8601 2.22001 11.1301 3.23001 10.2901 4.23001C3.0901 13.42 11.4301 19.62 11.4301 19.62L11.5001 19.67C11.5601 20.62 11.7201 22 11.7201 22H12.3401C12.3401 22 12.4901 20.63 12.5501 19.67L12.6201 19.61C12.6201 19.61 20.9401 13.42 13.7401 4.23001ZM12.0001 19.48C11.8248 19.336 11.6641 19.1753 11.5201 19L12.0001 9.00001L12.4501 19C12.3152 19.1735 12.1646 19.3342 12.0001 19.48Z" fill="#CFD2E2"/>
</svg>
