<svg width="24" height="24" viewBox="0 0 24 24" fill="none" xmlns="http://www.w3.org/2000/svg">
<path d="M18.0021 2.99707H5.99907C5.20345 2.99945 4.44111 3.31663 3.87861 3.87931C3.31611 4.442 2.99918 5.20445 2.99707 6.00007V18.0021C2.99997 18.7973 3.31721 19.5591 3.8796 20.1212C4.44198 20.6834 5.20387 21.0004 5.99907 21.0031H18.0021C18.7971 21.0002 19.5587 20.6831 20.1209 20.1209C20.6831 19.5587 21.0002 18.7971 21.0031 18.0021V6.00007C21.0007 5.2047 20.6838 4.44256 20.1216 3.87995C19.5594 3.31735 18.7974 2.99997 18.0021 2.99707ZM16.3621 15.6441C16.2101 16.0041 15.9731 16.3241 15.6691 16.5711C15.3096 16.8503 14.9003 17.0586 14.4631 17.1851C13.9731 17.3361 13.3891 17.4141 12.7131 17.4141H7.88807V6.90907H12.9911C13.9341 6.90907 14.6911 7.12207 15.2581 7.55507C15.8271 7.99107 16.1121 8.63707 16.1121 9.51307C16.1121 10.0411 15.9821 10.4961 15.7231 10.8701C15.4641 11.2431 15.0931 11.5341 14.6121 11.7381V11.7721C15.2541 11.9071 15.7491 12.2101 16.0761 12.6841C16.4031 13.1571 16.5691 13.7531 16.5691 14.4731C16.5691 14.8781 16.4911 15.2611 16.3441 15.6201L16.3641 15.6411V15.6441H16.3621ZM14.2781 13.0551C13.9691 12.7731 13.5391 12.6361 12.9811 12.6361H9.73707V15.9121H12.9901C13.5441 15.9121 13.9811 15.7681 14.2881 15.4771C14.5961 15.1881 14.7521 14.7761 14.7521 14.2481C14.7471 13.7301 14.5961 13.3291 14.2881 13.0551H14.2741H14.2781ZM13.8271 10.9361C14.1261 10.6851 14.2711 10.3231 14.2711 9.85207C14.2711 9.32607 14.1401 8.95007 13.8741 8.73607C13.6101 8.52207 13.2281 8.41007 12.7281 8.41007H9.72707V11.3081H12.7281C13.1641 11.3091 13.5381 11.1811 13.8271 10.9361Z" fill="#CFD2E2"/>
</svg>
