<svg width="24" height="24" viewBox="0 0 24 24" fill="none" xmlns="http://www.w3.org/2000/svg">
<path d="M20.8921 9.88895C20.8858 9.85942 20.8774 9.83035 20.8671 9.80195L18.7631 3.32295C18.7065 3.15601 18.5987 3.01113 18.4551 2.90883C18.3115 2.80653 18.1394 2.75199 17.9631 2.75295C17.7874 2.75189 17.616 2.80715 17.474 2.91063C17.332 3.01411 17.2269 3.16037 17.1741 3.32795L15.1681 9.50295H8.83411L6.82612 3.32695C6.77334 3.15995 6.66865 3.01413 6.52729 2.91072C6.38593 2.8073 6.21526 2.75169 6.04011 2.75195H6.03411C5.85795 2.75194 5.68627 2.80751 5.54353 2.91075C5.40079 3.01399 5.29426 3.15964 5.23911 3.32695L3.13311 9.81495C3.13311 9.81995 3.12811 9.82495 3.12611 9.83095L2.05911 13.112C1.9803 13.3526 1.97996 13.612 2.05815 13.8529C2.13633 14.0937 2.28899 14.3035 2.49411 14.452L11.7211 21.158C11.8881 21.279 12.1141 21.278 12.2791 21.155L21.5081 14.452C21.7126 14.303 21.8648 14.0932 21.943 13.8525C22.0211 13.6118 22.0211 13.3526 21.9431 13.112L20.8921 9.88895ZM17.9701 3.93595L19.7791 9.50195H16.1601L17.9701 3.93595ZM6.03012 3.93595L7.84211 9.50195H4.22811L6.03012 3.93595ZM3.04811 13.688C3.00447 13.6566 2.97192 13.6122 2.9552 13.5612C2.93848 13.5101 2.93845 13.455 2.95511 13.404L3.74811 10.967L9.56511 18.423L3.04811 13.688ZM4.54711 10.449H8.14811L10.7211 18.365L4.54711 10.449ZM11.9991 19.243L9.14311 10.445H14.8611L13.0691 15.96L11.9991 19.243ZM13.2811 18.366L15.7481 10.778L15.8541 10.449H19.4581L13.8721 17.605L13.2811 18.366ZM20.9521 13.688L14.4331 18.421L14.4551 18.392L20.2491 10.967L21.0411 13.403C21.0589 13.4537 21.0599 13.5089 21.0438 13.5602C21.0278 13.6115 20.9956 13.6563 20.9521 13.688Z" fill="#CFD2E2"/>
</svg>
