<svg width="24" height="24" viewBox="0 0 24 24" fill="none" xmlns="http://www.w3.org/2000/svg">
<path d="M20.9469 8.30499C20.9369 7.54761 20.7951 6.79776 20.5279 6.08899C20.2963 5.49114 19.9425 4.94819 19.4891 4.49482C19.0358 4.04145 18.4928 3.68764 17.8949 3.45599C17.1953 3.19334 16.4561 3.05133 15.7089 3.03599C14.7469 2.99299 14.4419 2.98099 11.9999 2.98099C9.55795 2.98099 9.24495 2.98099 8.28995 3.03599C7.54311 3.05144 6.8043 3.19346 6.10495 3.45599C5.50701 3.68748 4.96397 4.04123 4.51058 4.49462C4.05719 4.94801 3.70344 5.49105 3.47195 6.08899C3.20878 6.78812 3.06707 7.5271 3.05295 8.27399C3.00995 9.23699 2.99695 9.54199 2.99695 11.984C2.99695 14.426 2.99695 14.738 3.05295 15.694C3.06795 16.442 3.20895 17.18 3.47195 17.881C3.70383 18.4787 4.05784 19.0216 4.51138 19.4748C4.96492 19.928 5.50801 20.2816 6.10595 20.513C6.80338 20.7862 7.54232 20.9384 8.29095 20.963C9.25395 21.006 9.55895 21.019 12.0009 21.019C14.4429 21.019 14.7559 21.019 15.7109 20.963C16.4581 20.9483 17.1973 20.8066 17.8969 20.544C18.4946 20.3121 19.0375 19.9582 19.4908 19.5048C19.9441 19.0515 20.298 18.5087 20.5299 17.911C20.7929 17.211 20.9339 16.473 20.9489 15.724C20.9919 14.762 21.0049 14.457 21.0049 12.014C21.0029 9.57199 21.0029 9.26199 20.9469 8.30499ZM11.9939 16.602C9.43995 16.602 7.37095 14.533 7.37095 11.979C7.37095 9.42499 9.43995 7.35599 11.9939 7.35599C13.22 7.35599 14.3959 7.84305 15.2629 8.71003C16.1299 9.57701 16.6169 10.7529 16.6169 11.979C16.6169 13.2051 16.1299 14.381 15.2629 15.2479C14.3959 16.1149 13.22 16.602 11.9939 16.602ZM16.8009 8.26299C16.6593 8.26312 16.5191 8.23533 16.3883 8.1812C16.2574 8.12707 16.1385 8.04767 16.0384 7.94754C15.9383 7.84741 15.8589 7.72852 15.8047 7.59768C15.7506 7.46683 15.7228 7.32659 15.7229 7.18499C15.7229 7.04349 15.7508 6.90337 15.805 6.77265C15.8591 6.64192 15.9385 6.52314 16.0385 6.42308C16.1386 6.32302 16.2574 6.24366 16.3881 6.18951C16.5188 6.13536 16.659 6.10749 16.8004 6.10749C16.9419 6.10749 17.0821 6.13536 17.2128 6.18951C17.3435 6.24366 17.4623 6.32302 17.5624 6.42308C17.6624 6.52314 17.7418 6.64192 17.7959 6.77265C17.8501 6.90337 17.8779 7.04349 17.8779 7.18499C17.8779 7.78099 17.3959 8.26299 16.8009 8.26299Z" fill="#F6F6F8"/>
<path d="M11.994 14.982C13.6525 14.982 14.997 13.6375 14.997 11.979C14.997 10.3205 13.6525 8.97601 11.994 8.97601C10.3355 8.97601 8.99097 10.3205 8.99097 11.979C8.99097 13.6375 10.3355 14.982 11.994 14.982Z" fill="#F6F6F8"/>
</svg>
