<svg width="48" height="48" viewBox="0 0 48 48" fill="none" xmlns="http://www.w3.org/2000/svg">
<g clip-path="url(#clip0_76_364)">
<path d="M7.44375 0.665725C6.68438 0.7501 5.41875 1.13448 4.73438 1.47198C3.525 2.08135 2.24063 3.1876 1.5 4.25635C1.04063 4.93135 0.4875 6.15948 0.2625 7.03135L0.046875 7.82823V24.0001V40.172L0.2625 40.9688C0.4875 41.8407 1.04063 43.0688 1.5 43.7438C2.24063 44.8126 3.525 45.9188 4.73438 46.5282C5.48438 46.9032 6.64688 47.2313 7.62188 47.3345C8.87813 47.4751 39.1219 47.4751 40.3781 47.3345C43.9688 46.9407 46.8094 44.4751 47.7375 40.9688L47.9531 40.172V24.0001V7.82823L47.7375 7.03135C47.5125 6.15948 46.9594 4.93135 46.5 4.25635C45.7594 3.1876 44.475 2.08135 43.2656 1.47198C42.5438 1.11573 41.3813 0.778225 40.4531 0.665725C39.45 0.54385 8.49375 0.54385 7.44375 0.665725ZM34.8656 11.1188C35.9063 11.4282 36.5344 12.4407 36.45 13.6782C36.3656 14.7845 35.7375 15.6001 34.725 15.9001C32.9719 16.4063 31.3781 15.1032 31.5188 13.2751C31.6594 11.6063 33.1875 10.622 34.8656 11.1188ZM25.9406 23.0157C27.9656 28.7345 29.6063 33.4688 29.5781 33.5345C29.5219 33.7126 25.0781 33.7126 24.9656 33.5438C24.9281 33.4782 24.5344 32.372 24.0844 31.0782L23.2781 28.7345H19.5375H15.8063L15 31.172L14.2031 33.6095L12.1125 33.6376C10.3031 33.6563 10.0219 33.6376 9.975 33.5157C9.9375 33.4313 11.4188 29.0345 13.2563 23.7376C16.0313 15.7501 16.6125 13.997 16.65 13.4532C16.6781 13.0876 16.7156 12.7407 16.7438 12.6751C16.7719 12.5813 17.3719 12.5626 19.5188 12.5813L22.2563 12.6095L25.9406 23.0157ZM36.1406 25.6876V33.6095L33.9938 33.6376C32.3344 33.6563 31.8281 33.6282 31.7625 33.5438C31.6781 33.3938 31.6594 17.8688 31.7531 17.7751C31.7906 17.747 32.7844 17.7282 33.975 17.7376L36.1406 17.7657V25.6876Z" fill="#CFD2E2"/>
<path d="M18.225 20.4188C17.55 22.6688 17.0157 24.5438 17.0344 24.5813C17.0813 24.6751 22.0313 24.6751 22.0313 24.5907C22.0313 24.4688 19.5657 16.4532 19.5094 16.3876C19.4719 16.3501 18.9 18.1594 18.225 20.4188Z" fill="#CFD2E2"/>
</g>
<defs>
<clipPath id="clip0_76_364">
<rect width="48" height="48" fill="white"/>
</clipPath>
</defs>
</svg>
