<svg width="48" height="48" viewBox="0 0 48 48" fill="none" xmlns="http://www.w3.org/2000/svg">
<g clip-path="url(#clip0_76_359)">
<path d="M22.9688 0.506203C22.9688 1.19995 23.2031 2.44683 23.4844 3.27183C24.7969 7.12495 28.1813 9.86245 32.1844 10.3031C32.6813 10.3593 34.0969 10.4062 35.3438 10.4062H37.5938V12.6281C37.5938 13.8562 37.6406 15.2156 37.6875 15.6562C37.9594 18.0375 38.9813 20.1656 40.6781 21.8531C42.45 23.6343 44.6906 24.6562 47.325 24.9L48 24.9656V13.5187C48 5.39058 47.9719 1.9312 47.8969 1.57495C47.7469 0.871828 47.1281 0.253078 46.425 0.103078C46.0688 0.0280777 42.6 -4.73401e-05 34.4531 -4.73401e-05H22.9688V0.506203Z" fill="#CFD2E2"/>
<path d="M11.5312 12.103C11.5312 12.4123 11.6156 13.1061 11.7281 13.6217C12.5438 17.6248 15.6938 20.7936 19.7344 21.6748C20.4281 21.8248 21.0844 21.8717 23.3719 21.9092L26.1563 21.9655V24.3186C26.1563 26.8311 26.2688 27.928 26.6344 29.1092C27.675 32.4842 30.5438 35.2217 33.9281 36.0936C34.5844 36.2623 36.3656 36.5155 36.4313 36.4498C36.4406 36.4311 36.4688 31.1436 36.4875 24.6936L36.5156 12.9748L36.2344 12.5061C36.0188 12.1592 35.8219 11.9811 35.4469 11.7842L34.9313 11.5311H23.2313H11.5312V12.103Z" fill="#CFD2E2"/>
<path d="M0.0655762 23.5499C0.168701 25.0218 0.543701 26.503 1.08745 27.5812C2.4187 30.253 4.83745 32.2499 7.7062 33.0562C8.5312 33.2905 8.73745 33.3093 11.625 33.3749C13.3031 33.4124 14.6812 33.4499 14.7 33.4593C14.7093 33.4593 14.7187 34.5749 14.7187 35.9343C14.7187 38.6905 14.8218 39.5999 15.3 40.9687C15.8531 42.553 16.7343 43.9218 17.9437 45.0749C19.6312 46.678 21.8999 47.7093 24.1124 47.8874L25.0124 47.9624L25.0499 36.5155C25.0687 30.2249 25.0499 24.8905 25.0031 24.6562C24.9187 24.1124 24.5156 23.5499 24.0468 23.3062C23.6718 23.1093 23.6343 23.1093 11.85 23.0812L0.0280762 23.0624L0.0655762 23.5499Z" fill="#CFD2E2"/>
</g>
<defs>
<clipPath id="clip0_76_359">
<rect width="48" height="48" fill="white"/>
</clipPath>
</defs>
</svg>
