<svg width="48" height="48" viewBox="0 0 48 48" fill="none" xmlns="http://www.w3.org/2000/svg">
<path d="M10.4291 2.09464C6.72001 2.98918 3.73092 5.69464 2.37819 9.38191L1.85455 10.8001V24.0001V37.2001L2.37819 38.6183C3.38183 41.3892 5.23637 43.5274 7.7891 44.9019C10.2764 46.211 10.6473 46.2546 24 46.2546C37.3527 46.2546 37.7236 46.211 40.2109 44.9019C42.7636 43.5274 44.6182 41.3892 45.6218 38.6183L46.1455 37.2001V24.0001V10.8001L45.6218 9.38191C44.2691 5.651 41.2582 2.96736 37.4836 2.07282C35.5418 1.61464 12.3273 1.63645 10.4291 2.09464ZM15.0546 21.3819C15.0546 29.171 15.0764 29.3237 16.2546 30.7201C17.1055 31.7237 18.4146 32.3346 20.0073 32.4655C22.6255 32.6619 24.72 31.6146 25.6582 29.6074C26.1818 28.4728 26.1818 28.4292 26.1818 21.3165V14.1819H27.1855H28.1673L28.1018 21.5346C28.0364 28.7565 28.0364 28.931 27.5127 30.0655C26.8582 31.5055 25.0473 33.2074 23.6291 33.6874C19.5273 35.1055 15.4473 33.6219 13.7673 30.1092L13.2 28.9092L13.1346 21.5346L13.0691 14.1819H14.0727H15.0546V21.3819ZM35.1273 24.0001V33.8183H34.1455H33.1636V24.0001V14.1819H34.1455H35.1273V24.0001Z" fill="#CFD2E2"/>
</svg>
