<svg width="48" height="48" viewBox="0 0 48 48" fill="none" xmlns="http://www.w3.org/2000/svg">
<path d="M28.7812 0.0655987C28.7062 0.0937237 23.2218 2.37185 16.5937 5.1281C8.98117 8.29685 4.46242 10.2281 4.31242 10.3687L4.07805 10.5937V23.9906V37.3875L4.29367 37.6219C4.41555 37.7531 4.63117 37.8844 4.76242 37.9219C5.00617 37.9781 4.9968 37.9875 4.63117 38.1469C3.85305 38.4937 3.8343 39.4594 4.5843 39.8344C5.11867 40.1062 28.6499 47.9156 28.9405 47.925C29.0812 47.9344 32.4093 47.0156 36.328 45.9C42.1687 44.2312 43.4999 43.8187 43.6874 43.6312L43.9218 43.4062V24V4.59372L43.6874 4.35935C43.4906 4.16247 42.2624 3.78747 36.4218 2.11872C28.7812 -0.0562763 28.9874 -2.63184e-05 28.7812 0.0655987ZM29.9999 25.0687C29.9999 41.0437 29.9905 41.8875 29.8405 41.85C29.6437 41.8031 5.2218 38.0625 5.11867 38.0625C5.08117 38.0625 6.54367 37.3125 8.36242 36.3937C11.3812 34.875 11.6905 34.7062 11.8312 34.4062C11.9905 34.0969 11.9999 33.375 11.9999 23.4187V12.75L12.2624 12.6844C14.3812 12.15 29.878 8.26872 29.9343 8.25935C29.9718 8.24997 29.9999 15.8156 29.9999 25.0687Z" fill="#CFD2E2"/>
</svg>
