<svg width="48" height="48" viewBox="0 0 48 48" fill="none" xmlns="http://www.w3.org/2000/svg">
<g clip-path="url(#clip0_76_352)">
<path d="M7.44375 0.665725C6.68438 0.7501 5.41875 1.13448 4.73438 1.47198C3.525 2.08135 2.24063 3.1876 1.5 4.25635C1.04063 4.93135 0.4875 6.15948 0.2625 7.03135L0.046875 7.82823V24.0001V40.172L0.2625 40.9688C0.4875 41.8407 1.04063 43.0688 1.5 43.7438C2.24063 44.8126 3.525 45.9188 4.73438 46.5282C5.48438 46.9032 6.64688 47.2313 7.62188 47.3345C8.87813 47.4751 39.1219 47.4751 40.3781 47.3345C43.9688 46.9407 46.8094 44.4751 47.7375 40.9688L47.9531 40.172V24.0001V7.82823L47.7375 7.03135C47.5125 6.15948 46.9594 4.93135 46.5 4.25635C45.7594 3.1876 44.475 2.08135 43.2656 1.47198C42.5438 1.11573 41.3813 0.778225 40.4531 0.665725C39.45 0.54385 8.49375 0.54385 7.44375 0.665725ZM18.5906 12.572C21.0094 12.7782 22.6219 13.4532 24.0094 14.8126C24.8438 15.6376 25.3781 16.622 25.6969 17.897C25.8656 18.572 25.8844 18.872 25.8469 20.0063C25.8 21.4876 25.6688 22.0782 25.1531 23.1563C24.8906 23.7095 24.6281 24.047 23.9625 24.7126C23.2313 25.4438 22.9688 25.6313 22.2188 25.997C20.6719 26.7376 19.2469 27.0001 16.6688 27.0001H15.0938V30.3282V33.6563L12.9656 33.6376L10.8281 33.6095L10.8 23.2126C10.7906 16.547 10.8094 12.7782 10.875 12.7126C10.9219 12.6657 12.0094 12.6001 13.3313 12.5626C17.0719 12.4688 17.4188 12.4688 18.5906 12.572ZM36.7969 17.6345C37.1906 17.6813 37.7906 17.822 38.1375 17.9345C38.6344 18.1032 38.775 18.197 38.8219 18.3751C38.8594 18.5063 38.8875 19.3126 38.8969 20.1657C38.9063 22.1813 38.9156 22.172 37.9313 21.7595C36.3563 21.1032 33.8063 20.8501 32.8969 21.2532C32.5969 21.3845 32.4375 21.5345 32.3531 21.7313C32.025 22.5282 32.6625 23.0907 34.875 23.9532C38.2594 25.2657 39.5156 26.5313 39.6375 28.7251C39.7125 30.2063 39.3563 31.2095 38.3813 32.2501C37.3875 33.3001 36.15 33.8251 34.1438 34.0407C32.2313 34.247 29.3625 33.8251 28.3406 33.1876L28.0313 33.0001V31.1345C28.0313 30.0095 28.0688 29.2407 28.125 29.2032C28.1719 29.1751 28.5188 29.297 28.8938 29.4751C31.275 30.6188 34.6969 30.797 35.2031 29.8032C35.4 29.4376 35.3813 29.1282 35.1469 28.8376C34.8469 28.4532 34.4063 28.2095 32.9625 27.6188C30.1219 26.4657 28.8563 25.4345 28.3219 23.8407C28.0781 23.1282 28.0594 22.0407 28.2656 21.2345C28.7813 19.2657 30.5719 17.8782 33.0469 17.5407C33.7969 17.4376 35.7375 17.4845 36.7969 17.6345Z" fill="#CFD2E2"/>
<path d="M15.7313 16.4721L15.1875 16.5096V19.8939V23.2783L16.7625 23.2221C18.3844 23.1658 19.0875 23.0346 19.8281 22.6689C20.4844 22.3314 20.9719 21.8721 21.2531 21.3002C21.4875 20.8221 21.5156 20.6627 21.5156 19.8283C21.5156 18.6752 21.3094 18.1314 20.6156 17.4846C19.8563 16.7721 19.0406 16.5189 17.3906 16.4627C16.7719 16.4439 16.0219 16.4439 15.7313 16.4721Z" fill="#CFD2E2"/>
</g>
<defs>
<clipPath id="clip0_76_352">
<rect width="48" height="48" fill="white"/>
</clipPath>
</defs>
</svg>
